# xmcd
#
# Track frame offsets:
#	150
#	11754
#	23669
#	36760
#	49623
#	60095
#	70957
#	82053
#	93480
#	105411
#	115488
#	125776
#	136910
#	147995
#	158694
#	169991
#	182367
#	193975
#	205756
#	217072
#
# Disc length: 3066 seconds
#
# Revision: 0
# Processed by: cddbd v1.5.2PL0 Copyright (c) Steve Scherf et al.
# Submitted via: audiograbber 1.83.01
#
DISCID=1d0bf814
DTITLE=Patsy Cline and Kitty Wells - 20 Great Hits
DYEAR=1997
DGENRE=Country
TTITLE0=Patsy Cline - Walkin' After Midnight
TTITLE1=Kitty Wells - It Wasn't God Who Made Honky Tonk Angels
TTITLE2=Patsy Cline - Life's Railway to Heaven
TTITLE3=Kitty Wells - Makin' Believe
TTITLE4=Patsy Cline - Lovesick Blues
TTITLE5=Kitty Wells - Mommy For A Day
TTITLE6=Patsy Cline - I Can't Forget You
TTITLE7=Kitty Wells - The White Circle On My Finger
TTITLE8=Patsy Cline - Today, Tomorrow And Forever
TTITLE9=Kitty Wells - I Heard The Jukebox Playing
TTITLE10=Patsy Cline - Three Cigarettes In An Ashtray
TTITLE11=Kitty Wells - Heartbreak USA
TTITLE12=Patsy Cline - Stop The World
TTITLE13=Kitty Wells - Searchin' (For Someone Like You)
TTITLE14=Patsy Cline - Just Out Of Reach
TTITLE15=Kitty Wells - Release Me
TTITLE16=Patsy Cline - In Care Of The Blues
TTITLE17=Kitty Wells - I Gave My Wedding Dress Away
TTITLE18=Patsy Cline - Hungry For Love
TTITLE19=Kitty Wells - I Don't Claim To Be An Angel
EXTD=ReDone and Corrected by TheMusicMaster
EXTT0=
EXTT1=
EXTT2=
EXTT3=
EXTT4=
EXTT5=
EXTT6=
EXTT7=
EXTT8=
EXTT9=
EXTT10=
EXTT11=
EXTT12=
EXTT13=
EXTT14=
EXTT15=
EXTT16=
EXTT17=
EXTT18=
EXTT19=
PLAYORDER=
